#!OML:ASF F:\VICON\USERDATA\INSTALL\rory3\rory3.ASF
:FULLY-SPECIFIED
:DEGREES
37
root 0.43950313838209787 18.291612362235867 -11.470870785676688 6.106182278297034 -4.290024434006528 -1.1437696724246345
lfemur -16.161702940718246 0.5542564595705723 -24.818189963456945
ltibia 23.33115558321907
lfoot 7.482131689357839 -15.761931831784015
ltoes -11.933813870871539
rfemur 0.25783149012153217 8.359199353095814 28.54960506898274
rtibia 49.11107627273
rfoot 19.91582520936891 -8.032208812145264
rtoes 5.37281260487974
lowerback 12.887879468814521 1.1455611233121559 0.25097011583014694
upperback -1.606256264270757 1.4643201119887082 -0.9184105808067797
thorax -9.118943555992152 0.849792077476652 0.4763683633549626
lowerneck -17.830537709964414 -4.51794166597453 -2.4177347458518352
upperneck 7.642684574323351 -6.317933641023314 5.017735317620763
head 4.840647746297176 -2.844515310471871 1.4271180062384952
lclavicle -1.3367475555440004e-15 -2.7589793148735616e-15
lhumerus -55.44838533115401 -2.0462967401038785 85.67674251442956
lradius 100.26284385683853
lwrist 29.136622193986554
lhand -22.018418651879486 4.2761116703220425
lfingers 7.12502
lthumb 3.903285807325319 33.54512668173059
rclavicle -1.336747555503113e-15 -2.7589793148451492e-15
rhumerus -45.334788016803564 15.436608643290125 -99.95935344865622
rradius 121.55906145971838
rwrist -21.664886545795603
rhand -16.778186034253547 38.27352098436838
rfingers 7.12502
rthumb 9.105034812583053 8.442141542399987
38
root 0.4445283155948845 18.252924079452978 -10.634425731172566 5.848360640731507 -4.539933131894635 -1.0417422444217261
lfemur -14.37417370959132 1.051982888235029 -25.275135677153976
ltibia 22.36516092186127
lfoot 7.108925391834951 -15.407248353725242
ltoes -10.738116812641671
rfemur -1.9698003157020452 7.854443803329254 28.04729207410529
rtibia 51.778253478309274
rfoot 19.150337666361434 -8.596169734346294
rtoes 5.888853835041399
lowerback 13.027555800581812 1.0985027212540515 0.08030031886808553
upperback -1.4833712457634929 1.3678670298953652 -0.9790105609704556
thorax -8.968980504921003 0.7996743617764249 0.5277150325463809
lowerneck -18.033648988802128 -4.660995622115599 -2.4119172734779912
upperneck 6.818501547698027 -6.475110049181186 5.185991441671257
head 4.556631998718378 -2.894544976671468 1.4598657837233675
lclavicle -1.3367475555642629e-15 -2.7589793148874337e-15
lhumerus -53.92500373071397 -2.9887187750289943 86.03094937973775
lradius 100.14701544912717
lwrist 29.21022186065006
lhand -22.215914641095537 4.240871114671212
lfingers 7.12502
lthumb 3.8551506817451626 33.69320534782128
rclavicle -1.3367475554956061e-15 -2.7589793148373635e-15
rhumerus -45.89811975908808 14.88209153153813 -100.07709408326842
rradius 120.91221769719509
rwrist -21.81954152981388
rhand -16.70496232359567 38.1707144368349
rfingers 7.12502
rthumb 9.115221236947665 8.213764695532268
39
root 0.44444009547453733 18.184087247829176 -9.80172134930205 5.570206144265847 -4.830870387410753 -0.8988921223070669
lfemur -12.688123651776163 1.4857576609804881 -25.676063641297915
ltibia 21.8518576242627
lfoot 6.128443726723033 -14.969440104236561
ltoes -9.64232529923497
rfemur -4.464384609706535 7.37083906428496 27.451241403716786
rtibia 54.40025252692451
rfoot 18.216771675916444 -9.094876181961343
rtoes 5.309554436513982
lowerback 13.261717910281742 1.055109480758342 -0.13547712938601064
upperback -1.365498649345772 1.3211072072793208 -1.0201575889089693
thorax -9.01227349948334 0.7713912566294381 0.5558176495500716
lowerneck -18.29008916058911 -4.7235805434617975 -2.336825849293291
upperneck 6.399409467857621 -6.560131216106015 5.289040232321758
head 4.594843010145923 -2.9166294344184385 1.4284231745112435
lclavicle -1.3367475555315466e-15 -2.758979314863372e-15
lhumerus -51.99688250361466 -3.977305976066564 86.31429446798991
lradius 99.97964344340316
lwrist 29.05127000112993
lhand -22.15470344980797 4.488335354820036
lfingers 7.12502
lthumb 3.7575590027352606 33.71643264727083
rclavicle -1.3367475555069133e-15 -2.758979314847756e-15
rhumerus -46.432712407088744 14.707507765850629 -100.53508215834889
rradius 120.15672424372086
rwrist -21.94973052375666
rhand -16.819171758149253 38.07905563446838
rfingers 7.12502
rthumb 8.982762439860622 8.157035386780345
40
root 0.43824486013490765 18.116804648191366 -9.059748946159925 5.319042258970173 -5.101939775457303 -0.7679943975215862
lfemur -11.122998889903867 1.822090421074317 -25.969678596404854
ltibia 21.99775123656719
lfoot 4.982563397753066 -14.46647126917063
ltoes -9.068988103676862
rfemur -7.186531228212402 6.893627391961122 26.865178318539577
rtibia 56.83808829706031
rfoot 17.24778425385405 -9.531608129430886
rtoes 5.5230514489423665
lowerback 13.528518686875358 1.0183096820224469 -0.3685808148189893
upperback -1.1641113239255105 1.1795149747845786 -1.0388875037988816
thorax -8.878791970613124 0.6893747218115689 0.7207943414569968
lowerneck -18.520224144844175 -4.807072044269524 -2.4076486097434247
upperneck 6.260983490249577 -6.662027164392402 5.394575685404511
head 4.674972907844208 -2.953483934346114 1.4448373598140656
lclavicle -1.3367475555347052e-15 -2.7589793148676736e-15
lhumerus -50.064817183656174 -4.978466789532652 86.55334473402141
lradius 99.86493262678668
lwrist 28.910248377935712
lhand -22.307289754846185 4.540952259860153
lfingers 7.12502
lthumb 3.7248593388401883 33.80766104478778
rclavicle -1.3367475554874499e-15 -2.7589793148345047e-15
rhumerus -46.759744433859346 14.501405296192265 -100.62174871813014
rradius 119.32422499852915
rwrist -21.873504734878185
rhand -17.000686471893932 38.230707364381665
rfingers 7.12502
rthumb 8.7830398741472 8.338880403950688
